<svg width="60" height="60" viewBox="0 0 60 60" fill="none" xmlns="http://www.w3.org/2000/svg">
<path d="M30 60C46.5685 60 60 46.5685 60 30C60 13.4315 46.5685 0 30 0C13.4315 0 0 13.4315 0 30C0 46.5685 13.4315 60 30 60Z" fill="#414042"/>
<path d="M25.7739 43.7603L34.5379 20.265C34.654 19.9546 34.6931 19.6207 34.6519 19.2919C34.6108 18.9631 34.4906 18.6492 34.3016 18.377C34.1126 18.1049 33.8604 17.8825 33.5667 17.7291C33.273 17.5757 32.9465 17.4957 32.6151 17.496H15.0872C14.7558 17.4957 14.4293 17.5757 14.1356 17.7291C13.8419 17.8825 13.5897 18.1049 13.4007 18.377C13.2117 18.6492 13.0915 18.9631 13.0503 19.2919C13.0092 19.6207 13.0483 19.9546 13.1644 20.265L21.9284 43.7603C22.5924 45.5401 25.1099 45.5401 25.7739 43.7603Z" fill="url(#paint0_linear)"/>
<path d="M50.8241 31.2913H9.17291C9.17291 31.2913 8.8412 52.894 30.4089 52.894C51.5599 52.894 50.8241 31.2913 50.8241 31.2913Z" fill="#E5E5E5"/>
<path d="M23.5466 16.3549C22.7312 16.9176 18.3597 13.3707 18.952 11.7645C19.3108 10.7869 21.6395 10.1735 23.1708 11.2248C25.2094 12.6234 24.008 15.7174 23.6165 16.285C23.5979 16.3126 23.5742 16.3363 23.5466 16.3549V16.3549Z" fill="#00A651"/>
<path d="M26.9114 36.3322H9.76096C9.93285 37.1398 10.1554 38.0083 10.4419 38.9094H26.9114C27.2483 38.9021 27.569 38.7631 27.8047 38.5223C28.0404 38.2814 28.1724 37.9578 28.1724 37.6208C28.1724 37.2838 28.0404 36.9602 27.8047 36.7193C27.569 36.4785 27.2483 36.3395 26.9114 36.3322V36.3322Z" fill="#CCCCCB"/>
<path d="M39.6367 29.003C39.6341 28.7404 39.6765 28.4793 39.7622 28.231C39.8457 27.9844 39.9509 27.7457 40.0764 27.5175C40.3311 27.0696 40.6131 26.6378 40.9208 26.2244C41.2223 25.8095 41.5275 25.4024 41.8086 24.9862C41.9497 24.7781 42.0824 24.564 42.2 24.3517C42.3171 24.1444 42.4116 23.925 42.4817 23.6974C42.4991 23.6425 42.5076 23.5882 42.5215 23.5339C42.5353 23.4796 42.5377 23.4259 42.542 23.3735C42.5462 23.3219 42.5462 23.2701 42.542 23.2185L42.5353 23.1419L42.519 23.0659C42.466 22.8505 42.3725 22.6473 42.2434 22.467C41.9811 22.0804 41.6264 21.7294 41.2633 21.3814C40.9003 21.0334 40.5209 20.6847 40.159 20.2957C39.9732 20.0987 39.8003 19.8898 39.6415 19.6703C39.47 19.437 39.3309 19.1816 39.2278 18.911C39.1141 18.6133 39.0752 18.2923 39.1144 17.9761C39.1587 17.6768 39.252 17.3868 39.3906 17.1179C39.5144 16.8711 39.6554 16.6335 39.8128 16.4068C39.9654 16.1848 40.1252 15.9731 40.2869 15.7687C40.4485 15.5642 40.6144 15.3658 40.779 15.171C40.9437 14.9762 41.1071 14.7844 41.267 14.5938C41.4268 14.4032 41.583 14.2144 41.7265 14.0244C41.8671 13.8428 41.9955 13.652 42.1107 13.4533C42.2133 13.2866 42.2848 13.1027 42.3218 12.9105C42.3459 12.7351 42.3231 12.5566 42.2555 12.393C42.171 12.1966 42.058 12.0137 41.9201 11.8502C41.7674 11.6664 41.6032 11.4923 41.4286 11.3291C41.0715 10.9877 40.6747 10.6602 40.3056 10.2833C40.2597 10.2356 40.2139 10.188 40.1699 10.1379C40.1258 10.0879 40.0812 10.0384 40.0384 9.98653C39.9956 9.93466 39.9546 9.88098 39.9136 9.82791C39.8725 9.77483 39.8351 9.71693 39.8002 9.65783C39.728 9.53998 39.6699 9.41407 39.6271 9.28268C39.5891 9.14951 39.5768 9.01032 39.5909 8.87256H39.6874C39.7081 8.98986 39.7489 9.10269 39.808 9.20609C39.87 9.30733 39.9432 9.40122 40.0263 9.48594C40.1994 9.65765 40.3885 9.81254 40.5909 9.94853C40.998 10.2332 41.4352 10.4913 41.8628 10.8044C42.0842 10.9621 42.2934 11.136 42.4889 11.3249C42.7046 11.5304 42.8862 11.769 43.0269 12.0317C43.1816 12.3299 43.2525 12.6644 43.2319 12.9997C43.23 13.0418 43.2251 13.0837 43.2175 13.1252C43.2114 13.1668 43.2054 13.2084 43.1976 13.2488C43.1777 13.3254 43.1608 13.4068 43.1372 13.4798C43.0908 13.6233 43.0339 13.7632 42.9672 13.8984C42.8409 14.1487 42.6945 14.3883 42.5293 14.6149C42.3713 14.8356 42.2054 15.0413 42.0365 15.2409C41.8677 15.4406 41.6946 15.6318 41.5251 15.8218C41.3556 16.0117 41.1837 16.1957 41.0191 16.3821C40.8544 16.5684 40.6922 16.753 40.5426 16.9418C40.3962 17.1239 40.263 17.3161 40.1439 17.5171C40.0353 17.695 39.9568 17.8896 39.9117 18.0931C39.8791 18.2839 39.8946 18.4798 39.957 18.6631C40.0267 18.8727 40.1245 19.0719 40.2477 19.2553C40.3794 19.4548 40.524 19.6454 40.6807 19.8259C40.9992 20.1986 41.3586 20.5557 41.7133 20.929C41.8906 21.1166 42.0673 21.3084 42.2374 21.5116C42.4128 21.7174 42.5721 21.9364 42.7139 22.1666C42.8679 22.4118 42.9742 22.684 43.0269 22.9688C43.0329 23.0062 43.0389 23.0436 43.0438 23.081L43.0486 23.1956C43.0509 23.2711 43.0475 23.3467 43.0383 23.4217C43.0287 23.4959 43.0136 23.5677 42.9985 23.6388C42.9835 23.71 42.9623 23.7782 42.9382 23.8439C42.8443 24.099 42.723 24.3431 42.5763 24.5719C42.4352 24.7962 42.2832 25.0079 42.1252 25.213C41.8104 25.6231 41.4781 26.0115 41.1566 26.4048C40.8311 26.7923 40.5294 27.1991 40.2531 27.6231C40.1173 27.8335 40.0005 28.0555 39.9039 28.2865C39.8061 28.5152 39.7483 28.759 39.7332 29.0073L39.6367 29.003Z" fill="white"/>
<path d="M45.218 29.003C45.2151 28.7404 45.2575 28.4792 45.3435 28.231C45.4266 27.9844 45.5316 27.7456 45.6571 27.5175C45.9116 27.0695 46.1936 26.6377 46.5015 26.2244C46.803 25.8095 47.1046 25.4024 47.3893 24.9862C47.5304 24.7782 47.6631 24.564 47.7807 24.3517C47.8974 24.1442 47.9916 23.9249 48.0618 23.6974C48.0799 23.6425 48.0877 23.5882 48.1016 23.5339C48.1154 23.4796 48.1185 23.426 48.1221 23.3735C48.126 23.3219 48.126 23.2701 48.1221 23.2185L48.1154 23.1419L48.0992 23.0659C48.0459 22.8506 47.9524 22.6474 47.8235 22.467C47.5606 22.0804 47.2065 21.7294 46.8435 21.3814C46.4804 21.0334 46.1004 20.6848 45.7391 20.2957C45.5531 20.0988 45.3802 19.8899 45.2216 19.6703C45.0508 19.4364 44.9126 19.1803 44.8109 18.9092C44.6974 18.6115 44.6582 18.2906 44.6969 17.9743C44.7415 17.6751 44.8348 17.3851 44.9732 17.1161C45.0979 16.8694 45.2398 16.6318 45.3978 16.405C45.5504 16.183 45.7096 15.9713 45.8712 15.7669C46.0329 15.5624 46.1987 15.364 46.3634 15.1692C46.528 14.9744 46.6915 14.7826 46.8513 14.592C47.0111 14.4014 47.1673 14.2126 47.3109 14.0226C47.4519 13.8413 47.5802 13.6505 47.6951 13.4515C47.7978 13.2848 47.8695 13.1009 47.9068 12.9087C47.931 12.7333 47.9079 12.5546 47.8398 12.3912C47.7558 12.1947 47.643 12.0117 47.5051 11.8484C47.3521 11.6646 47.1877 11.4905 47.0129 11.3273C46.6559 10.9859 46.259 10.6584 45.8899 10.2815C45.8441 10.2338 45.7988 10.1862 45.7542 10.1361C45.7096 10.0861 45.6662 10.0366 45.6227 9.98473C45.5793 9.93286 45.5395 9.87918 45.4979 9.82611C45.4563 9.77303 45.4195 9.71513 45.3845 9.65603C45.3123 9.53829 45.2544 9.41235 45.212 9.28088C45.1738 9.14775 45.1613 9.00856 45.1752 8.87076H45.2717C45.2924 8.98805 45.3332 9.10088 45.3923 9.20429C45.4543 9.30538 45.5273 9.39925 45.6101 9.48414C45.7834 9.65585 45.9726 9.81074 46.1752 9.94673C46.5817 10.2314 47.0196 10.4895 47.4466 10.8026C47.668 10.9604 47.8774 11.1344 48.0732 11.3231C48.2886 11.5289 48.4701 11.7675 48.6112 12.0299C48.766 12.3281 48.8368 12.6626 48.8163 12.9979C48.814 13.04 48.8092 13.0819 48.8018 13.1234C48.7952 13.165 48.7897 13.2066 48.7813 13.247C48.7614 13.3236 48.7445 13.405 48.721 13.478C48.6742 13.6214 48.6174 13.7613 48.5509 13.8966C48.4242 14.1468 48.2776 14.3864 48.1124 14.6131C47.955 14.8338 47.7885 15.0395 47.6197 15.2391C47.4508 15.4388 47.2783 15.63 47.1088 15.82C46.9393 16.0099 46.7669 16.1939 46.6022 16.3803C46.4375 16.5666 46.2753 16.7512 46.1263 16.94C45.9796 17.1218 45.8463 17.3141 45.7277 17.5153C45.619 17.6932 45.5405 17.8878 45.4955 18.0913C45.4626 18.2821 45.4779 18.478 45.5401 18.6613C45.6101 18.8708 45.7078 19.07 45.8308 19.2535C45.9627 19.453 46.1076 19.6436 46.2645 19.8241C46.5829 20.1968 46.9418 20.5539 47.297 20.9272C47.4737 21.1148 47.6504 21.3066 47.8205 21.5098C47.996 21.7156 48.1553 21.9346 48.297 22.1648C48.4516 22.4098 48.558 22.6821 48.6106 22.967C48.616 23.0044 48.6227 23.0418 48.6269 23.0792L48.6317 23.1937C48.6341 23.2693 48.6306 23.3449 48.6215 23.4199C48.6124 23.4941 48.5973 23.5659 48.5823 23.637C48.5672 23.7082 48.5455 23.7764 48.5219 23.8421C48.4278 24.0971 48.3065 24.3411 48.1601 24.5701C48.0189 24.7944 47.8664 25.0061 47.7089 25.2112C47.3935 25.6213 47.0618 26.0097 46.7403 26.403C46.4146 26.7893 46.1125 27.1949 45.8356 27.6177C45.6999 27.8281 45.583 28.0501 45.4864 28.2811C45.3888 28.5098 45.3312 28.7536 45.3163 29.0018L45.218 29.003Z" fill="white"/>
<path d="M52.698 39.9871L40.7561 40.7109L52.2957 42.3592" fill="#414042"/>
<defs>
<linearGradient id="paint0_linear" x1="34.6694" y1="31.2955" x2="13.0335" y2="31.2955" gradientUnits="userSpaceOnUse">
<stop stop-color="#F7941D"/>
<stop offset="1" stop-color="#F47621"/>
</linearGradient>
</defs>
</svg>
