<svg xmlns="http://www.w3.org/2000/svg" viewBox="0 0 1000 1000"><defs><style>.cls-1{fill:none;}.cls-1,.cls-3{stroke:#231f20;stroke-miterlimit:10;stroke-width:40px;}.cls-2{fill:#231f20;}.cls-3{fill:#fff;}</style></defs><title>outline</title><g id="Layer_4" data-name="Layer 4"><path class="cls-1" d="M429.93,725.56,575.24,336a34,34,0,0,0-31.88-45.91H252.74A34,34,0,0,0,220.86,336L366.17,725.56C377.18,755.07,418.92,755.07,429.93,725.56Z"/><path class="cls-1" d="M393,271.17c-13.52,9.33-86-49.48-76.18-76.11,5.95-16.21,44.56-26.38,69.95-8.95,33.8,23.19,13.88,74.49,7.39,83.9A4.3,4.3,0,0,1,393,271.17Z"/><path class="cls-2" d="M658.58,480.88a38.56,38.56,0,0,1,1.51-13.45A76.12,76.12,0,0,1,664.87,455a215.16,215.16,0,0,1,13.18-22.47c4.64-7.19,9.48-14.12,13.74-21.09,2.13-3.48,4.1-7,5.77-10.4a46.58,46.58,0,0,0,3.66-9.92c.21-.78.24-1.48.39-2.2,0-.35,0-.67.06-1a8,8,0,0,0,0-1,11.22,11.22,0,0,0-.18-1.68,7.09,7.09,0,0,1-.14-.78l-.27-.82a19.35,19.35,0,0,0-1.55-3.52l-1.17-1.9c-.48-.65-.89-1.29-1.4-2a78,78,0,0,0-7.19-8c-2.71-2.69-5.68-5.37-8.76-8.1-6.12-5.52-12.71-11.09-19.25-17.7a109.11,109.11,0,0,1-9.6-11.08,61.25,61.25,0,0,1-8.28-14.73,42.59,42.59,0,0,1-2.73-20,57.86,57.86,0,0,1,5.12-17.73,116.48,116.48,0,0,1,7.36-13.5c2.58-4.1,5.23-7.91,7.85-11.55,5.3-7.25,10.7-13.8,15.78-19.89,2.53-3,5-6,7.22-8.74,1.11-1.37,2.15-2.75,3.11-4,.54-.66.94-1.26,1.39-1.88s.81-1.19,1.2-1.76c.78-1.13,1.35-2.13,1.83-3a5.77,5.77,0,0,0,.31-.55c.09-.17.19-.33.29-.5s.11-.22.18-.34a2.34,2.34,0,0,1,.2-.27c.05-.1.27-.17.29-.38s.11-.19.16-.29a1.35,1.35,0,0,1,.09-.33c.14-.23,0-.53.14-.84a3.39,3.39,0,0,0,0-.53,4.41,4.41,0,0,0,0-.6,20.8,20.8,0,0,0-3-6.91,79.39,79.39,0,0,0-6.47-8.64c-5-6.07-11.12-12.32-16.77-19.71a63.79,63.79,0,0,1-7.65-12.38,30.6,30.6,0,0,1-2.29-7.42,18.16,18.16,0,0,1,.46-7.76h4A16.52,16.52,0,0,0,665,151.7a29.68,29.68,0,0,0,4.19,3.43c.75.52,1.58,1,2.35,1.51s1.61,1,2.5,1.42,1.68.94,2.58,1.39,1.76.9,2.67,1.34c7.2,3.59,15,7.1,22.93,11.83a83.94,83.94,0,0,1,12.07,8.62c1,.91,2,1.76,3,2.8l1.49,1.52c.5.51,1,1.1,1.47,1.66s1,1.12,1.44,1.73l1.4,1.9.69,1c.23.33.44.7.66,1.05L725.7,195c.42.71.79,1.54,1.18,2.32s.77,1.57,1.09,2.43a42.21,42.21,0,0,1,1.7,5.31c.22.92.43,1.85.62,2.79s.25,1.91.36,2.87a37.77,37.77,0,0,1,.16,5.95,27.92,27.92,0,0,1-.26,2.85c-.12.93-.24,1.88-.4,2.78l-.56,2.55a25.33,25.33,0,0,1-.64,2.47A66,66,0,0,1,725.7,236a92.67,92.67,0,0,1-7.94,13.68,136.43,136.43,0,0,1-8.58,11.09c-5.81,6.85-11.75,12.82-17.33,18.51-2.83,2.83-5.48,5.6-7.9,8.32a76.26,76.26,0,0,0-6.31,7.82,29.42,29.42,0,0,0-3.31,6l-.11.27c0,.07,0,.14,0,.21a4.14,4.14,0,0,1-.15.41l-.14,1.14c.07.44,0,.86.07,1.35q.07.38.12.75l0,.39c0,.13.08.27.11.41a29.5,29.5,0,0,0,3.35,7.7,79.53,79.53,0,0,0,6.16,8.76c4.74,6,10.41,12.08,16.19,18.56,2.87,3.27,5.79,6.65,8.66,10.31a93.8,93.8,0,0,1,8.22,12.08c.64,1.11,1.22,2.34,1.81,3.5s1.11,2.51,1.62,3.79a40.52,40.52,0,0,1,2.22,8.56c.1.77.2,1.53.27,2.3l.06,2.38a32.42,32.42,0,0,1-.33,4.65c-.08.77-.27,1.45-.41,2.18s-.3,1.44-.49,2.12c-.42,1.31-.79,2.69-1.29,3.91a65.57,65.57,0,0,1-7,13c-2.61,3.85-5.38,7.38-8.19,10.75-5.64,6.73-11.39,13-17,19.2a208.65,208.65,0,0,0-15.8,19.11A69.61,69.61,0,0,0,666,469.58a35.9,35.9,0,0,0-3.4,11.3Z"/><path class="cls-2" d="M751.12,480.88a38.56,38.56,0,0,1,1.5-13.45A75.26,75.26,0,0,1,757.41,455a213.34,213.34,0,0,1,13.17-22.47c4.65-7.19,9.48-14.12,13.74-21.09a117.82,117.82,0,0,0,5.77-10.4,46.65,46.65,0,0,0,3.67-9.92c.2-.78.24-1.48.39-2.2,0-.35,0-.67.06-1a7.88,7.88,0,0,0,0-1,10.05,10.05,0,0,0-.18-1.68c-.06-.26-.1-.52-.14-.78l-.27-.82a20,20,0,0,0-1.54-3.52l-1.18-1.9c-.48-.65-.88-1.29-1.4-2a79,79,0,0,0-7.18-8c-2.72-2.69-5.68-5.37-8.77-8.1-6.12-5.52-12.71-11.09-19.24-17.7a109.16,109.16,0,0,1-9.61-11.08,61.25,61.25,0,0,1-8.28-14.73,42.59,42.59,0,0,1-2.73-20,57.86,57.86,0,0,1,5.13-17.73,116.47,116.47,0,0,1,7.35-13.5c2.58-4.1,5.23-7.91,7.86-11.55,5.29-7.25,10.7-13.8,15.78-19.89,2.53-3,5-6,7.21-8.74,1.11-1.37,2.16-2.75,3.12-4,.53-.66.93-1.26,1.38-1.88s.82-1.19,1.2-1.76c.79-1.13,1.36-2.13,1.83-3a3.27,3.27,0,0,0,.31-.55c.09-.17.19-.33.3-.5a3.65,3.65,0,0,1,.18-.34c0-.09.19-.26.19-.27s.27-.17.3-.38a1.4,1.4,0,0,1,.16-.29,1.32,1.32,0,0,1,.08-.33c.15-.23.06-.53.14-.84a2.49,2.49,0,0,0,0-.53,2.55,2.55,0,0,0,0-.6,20.53,20.53,0,0,0-3-6.91,78.28,78.28,0,0,0-6.48-8.64c-5-6.07-11.12-12.32-16.77-19.71a64.28,64.28,0,0,1-7.65-12.38,31,31,0,0,1-2.29-7.42,18.49,18.49,0,0,1,.46-7.76h4a16.74,16.74,0,0,0,3.09,4.58,30.26,30.26,0,0,0,4.19,3.43c.76.52,1.59,1,2.36,1.51s1.6,1,2.49,1.42,1.69.94,2.58,1.39,1.76.9,2.67,1.34c7.21,3.59,15,7.1,22.93,11.83a83.94,83.94,0,0,1,12.07,8.62c1,.91,2,1.76,3,2.8l1.49,1.52c.49.51,1,1.1,1.46,1.66s1,1.12,1.45,1.73l1.4,1.9.69,1c.22.33.44.7.65,1.05l1.29,2.15c.43.71.79,1.54,1.18,2.32s.77,1.57,1.09,2.43a40.64,40.64,0,0,1,1.7,5.31c.22.92.44,1.85.62,2.79s.26,1.91.36,2.87a37.77,37.77,0,0,1,.16,5.95,23.2,23.2,0,0,1-.26,2.85c-.12.93-.23,1.88-.39,2.78l-.56,2.55c-.2.85-.4,1.73-.64,2.47a64.62,64.62,0,0,1-3.26,8.65,92.66,92.66,0,0,1-7.93,13.68,138.71,138.71,0,0,1-8.58,11.09c-5.81,6.85-11.76,12.82-17.34,18.51q-4.25,4.25-7.9,8.32a79,79,0,0,0-6.31,7.82,29.77,29.77,0,0,0-3.3,6l-.12.27a1.55,1.55,0,0,1,0,.21,2.49,2.49,0,0,1-.14.41l-.14,1.14c.06.44,0,.86.07,1.35,0,.25.08.5.11.75l0,.39c0,.13.07.27.11.41a28.84,28.84,0,0,0,3.35,7.7,78.2,78.2,0,0,0,6.16,8.76c4.74,6,10.41,12.08,16.18,18.56,2.88,3.27,5.8,6.65,8.66,10.31a94.87,94.87,0,0,1,8.23,12.08c.63,1.11,1.21,2.34,1.81,3.5s1.1,2.51,1.62,3.79a40.51,40.51,0,0,1,2.21,8.56c.1.77.21,1.53.28,2.3l.05,2.38A31,31,0,0,1,815,389c-.08.77-.28,1.45-.41,2.18s-.3,1.44-.49,2.12c-.42,1.31-.8,2.69-1.3,3.91a65.55,65.55,0,0,1-7,13c-2.62,3.85-5.38,7.38-8.19,10.75-5.64,6.73-11.39,13-17.05,19.2a206.91,206.91,0,0,0-15.79,19.11,67.94,67.94,0,0,0-6.21,10.34,35.39,35.39,0,0,0-3.4,11.3Z"/><path class="cls-3" d="M651.89,652.44,828,641.91c19.18-67.43,17.29-123.09,17.29-123.09H154.68S149.18,877,506.78,877c156,0,240.2-70.89,285.6-149.59L648.24,667.88C638,665.23,640.67,651.11,651.89,652.44Z"/><path class="cls-1" d="M449,602.4H167.44a326.14,326.14,0,0,0,11.19,35.49H449c11.68,0,21.15-7.95,21.15-17.75S460.68,602.4,449,602.4Z"/></g></svg>