<svg width="24" height="24" viewBox="0 0 24 24" fill="none" xmlns="http://www.w3.org/2000/svg">
<path d="M8.99997 12L11 14L15 10M7.83497 4.697C8.55228 4.63975 9.23325 4.35771 9.78097 3.891C10.3999 3.36327 11.1866 3.07339 12 3.07339C12.8133 3.07339 13.6001 3.36327 14.219 3.891C14.7667 4.35771 15.4477 4.63975 16.165 4.697C16.9757 4.7615 17.737 5.11283 18.312 5.68793C18.8871 6.26303 19.2385 7.02425 19.303 7.835C19.3602 8.55231 19.6423 9.23328 20.109 9.781C20.6367 10.3999 20.9266 11.1866 20.9266 12C20.9266 12.8134 20.6367 13.6001 20.109 14.219C19.6423 14.7667 19.3602 15.4477 19.303 16.165C19.2385 16.9758 18.8871 17.737 18.312 18.3121C17.737 18.8872 16.9757 19.2385 16.165 19.303C15.4477 19.3603 14.7667 19.6423 14.219 20.109C13.6001 20.6367 12.8133 20.9266 12 20.9266C11.1866 20.9266 10.3999 20.6367 9.78097 20.109C9.23325 19.6423 8.55228 19.3603 7.83497 19.303C7.02422 19.2385 6.263 18.8872 5.6879 18.3121C5.1128 17.737 4.76147 16.9758 4.69697 16.165C4.63972 15.4477 4.35767 14.7667 3.89097 14.219C3.36324 13.6001 3.07336 12.8134 3.07336 12C3.07336 11.1866 3.36324 10.3999 3.89097 9.781C4.35767 9.23328 4.63972 8.55231 4.69697 7.835C4.76147 7.02425 5.1128 6.26303 5.6879 5.68793C6.263 5.11283 7.02422 4.7615 7.83497 4.697Z" stroke="#3B82F6" stroke-width="2" stroke-linecap="round" stroke-linejoin="round"/>
</svg>
