<svg width="44" height="44" viewBox="0 0 44 44" fill="none" xmlns="http://www.w3.org/2000/svg">
<path d="M22 40.3333C11.8748 40.3333 3.66666 32.1252 3.66666 22C3.66666 11.8748 11.8748 3.66667 22 3.66667C32.1252 3.66667 40.3333 11.8748 40.3333 22C40.3222 32.1206 32.1206 40.3222 22 40.3333ZM22 7.33333C13.9432 7.33537 7.3965 13.8359 7.33743 21.8925C7.27836 29.949 13.7291 36.5449 21.7849 36.665C29.8408 36.7852 36.4854 30.3847 36.6667 22.33V25.5988V22C36.6576 13.9036 30.0964 7.34243 22 7.33333ZM24.6583 30.9833L15.5833 21.9083L24.6583 12.8333L27.2507 15.4257L20.768 21.9083L27.2488 28.391L24.6602 30.9833H24.6583Z" fill="#2E3A59"/>
</svg>
