<svg width="38" height="38" viewBox="0 0 38 38" fill="none" xmlns="http://www.w3.org/2000/svg">
<path d="M18.9999 0.666667C29.1251 0.666667 37.3333 8.87478 37.3333 19C37.3333 29.1252 29.1251 37.3333 18.9999 37.3333C8.8747 37.3333 0.666584 29.1252 0.666584 19C0.677699 8.87939 8.8793 0.677781 18.9999 0.666667ZM18.9999 33.6667C27.0567 33.6646 33.6034 27.1641 33.6625 19.1075C33.7215 11.051 27.2708 4.45514 19.215 4.33497C11.1591 4.21479 4.51453 10.6153 4.33325 18.67V15.4012V19C4.34234 27.0964 10.9035 33.6576 18.9999 33.6667ZM16.3416 10.0167L25.4166 19.0917L16.3416 28.1667L13.7493 25.5743L20.2319 19.0917L13.7511 12.609L16.3398 10.0167H16.3416Z" fill="#2E3A59"/>
</svg>
