<svg width="18" height="18" viewBox="0 0 18 18" fill="none" xmlns="http://www.w3.org/2000/svg">
<path d="M2.50002 1.41666C10.2784 1.41666 16.5834 7.72166 16.5834 15.5M2.50002 7.91666C4.51125 7.91666 6.4401 8.71561 7.86225 10.1378C9.2844 11.5599 10.0834 13.4888 10.0834 15.5M3.58335 15.5C3.58335 15.7873 3.46922 16.0629 3.26605 16.266C3.06289 16.4692 2.78734 16.5833 2.50002 16.5833C2.2127 16.5833 1.93715 16.4692 1.73399 16.266C1.53082 16.0629 1.41669 15.7873 1.41669 15.5C1.41669 15.2127 1.53082 14.9371 1.73399 14.734C1.93715 14.5308 2.2127 14.4167 2.50002 14.4167C2.78734 14.4167 3.06289 14.5308 3.26605 14.734C3.46922 14.9371 3.58335 15.2127 3.58335 15.5Z" stroke="#2E3A59" stroke-width="2" stroke-linecap="round" stroke-linejoin="round"/>
</svg>
