<svg width="21" height="21" viewBox="0 0 21 21" fill="none" xmlns="http://www.w3.org/2000/svg">
<path d="M4.50002 13C5.37467 12.9974 6.21624 12.6653 6.85702 12.07L13.117 15.647C12.6834 17.3413 13.5595 19.0969 15.174 19.7692C16.7885 20.4415 18.6517 19.8265 19.5488 18.3253C20.4458 16.824 20.1047 14.8918 18.7478 13.7885C17.3908 12.6852 15.4297 12.7455 14.143 13.93L7.88302 10.353C7.94865 10.1021 7.98489 9.84432 7.99102 9.585L14.142 6.07C15.3629 7.17994 17.1944 7.28285 18.532 6.31668C19.8696 5.35051 20.3474 3.57944 19.6774 2.07159C19.0074 0.563735 17.3727 -0.268594 15.7591 0.0765662C14.1456 0.421727 12.9945 1.85 13 3.5C13.0036 3.78808 13.0429 4.0746 13.117 4.353L7.43302 7.6C6.52251 6.19142 4.74074 5.62676 3.18513 6.25381C1.62951 6.88086 0.737409 8.52333 1.05828 10.1696C1.37915 11.8158 2.82278 13.0031 4.50002 13Z" fill="#2E3A59"/>
</svg>
